<svg xmlns="http://www.w3.org/2000/svg" direction="ltr" width="339" height="192.24948880150885" viewBox="810 295.73272951724766 339 192.24948880150885" stroke-linecap="round" stroke-linejoin="round" encoding="UTF-8&quot;"><defs/><g transform="matrix(1, 0, 0, 1, 842, 352)" opacity="1"><path d="M2.9161,2.68 Q2.9941,5.5783 3.88,10.8424 T6.7859,24.148 11.6929,42.2301 16.8464,60.3201 20.5878,73.7353 22.8913,83.2568 24.3923,91.0306 25.6524,97.5255 25.7246,101.2433 24.8979,99.4058 24.7172,90.8044 24.9265,77.8006 25.0543,64.1168 25.1331,51.6238 24.961,39.6042 24.4258,26.5086 23.688,13.4585 23.0571,2.4117 22.4875,-6.3719 21.9506,-12.7942 21.5894,-17.2905 21.1833,-21.528 21.8257,-24.9824 25.6249,-25.5261 31.247,-22.8148 37.5978,-17.498 45.9588,-9.6335 56.6544,2.3834 67.9653,17.5847 77.3542,32.0556 84.8008,45.2481 90.7339,57.5199 94.9378,68.1874 97.3082,77.8392 97.4636,86.2293 94.3883,92.7011 88.2832,96.7059 80.8709,98.16 73.0527,97.5227 65.1819,94.6086 58.3132,90.4747 52.7281,86.1388 47.9975,81.4276 44.221,76.7502 41.5589,72.8805 41.0699,69.1797 43.7711,66.4396 51.8762,66.0748 68.3656,67.4348 94.0392,69.3247 128.4145,69.9377 166.1055,68.0702 198.768,64.1601 223.1091,59.7795 240.8446,55.7987 254.2593,52.4784 267.3126,49.1612 274.8511,47.2912 275.4046,47.3332 275.9156,47.5496 276.3308,47.9179 276.6067,48.3995 276.7143,48.944 276.6425,49.4943 276.3986,49.9929 276.0084,50.3875 275.5126,50.6369 274.9631,50.7148 274.4174,50.6133 273.9328,50.3428 273.5599,49.9317 273.3378,49.4231 273.2897,48.8702 273.4207,48.3309 273.717,47.8616 274.1477,47.5115 274.6676,47.3173 275.2223,47.2992 275.7537,47.4593 276.2063,47.7806 276.5325,48.2296 276.6983,48.7593 276.6862,49.3142 276.4976,49.8361 276.1522,50.2706 275.6862,50.572 275.4287,50.6844 268.1721,52.5358 255.1041,55.8715 241.6239,59.2276 223.7532,63.2635 199.2103,67.7127 166.2905,71.6967 128.3387,73.6406 93.7535,73.1167 68.0888,71.3618 52.159,70.1604 45.2824,69.9425 44.6274,71.2059 46.9117,74.6015 50.4373,79.0005 54.8497,83.427 60.1211,87.5392 66.3929,91.4121 73.3739,94.1117 80.289,94.7811 86.5973,93.7894 91.5908,90.994 94.0958,86.028 93.8989,78.6324 91.6375,69.4715 87.5061,59.0774 81.6374,47.04 74.2424,34.077 64.9186,19.8693 53.7487,5.05 43.1782,-6.5738 34.8577,-14.067 28.7796,-18.7968 25.7855,-22.0164 25.1696,-21.4443 25.1656,-17.5259 25.4082,-13.0802 25.9578,-6.609 26.5438,2.2134 27.1928,13.2549 27.9588,26.3614 28.5308,39.5478 28.7519,51.6369 28.7388,64.139 28.7011,77.8452 28.6127,90.944 27.2765,101.4124 24.3702,103.5086 22.1194,98.2328 20.7985,91.7412 19.2537,84.1407 16.8757,74.7903 12.992,61.4404 7.6218,43.3581 2.386,25.1302 -0.9672,11.4727 -2.4718,3.0961 -2.7718,-0.3331 -2.4333,-1.3685 -1.7244,-2.1955 -0.7529,-2.6883 0.3332,-2.7718 1.3686,-2.4333 2.1956,-1.7243 2.6883,-0.7528 2.8381,-0.2182 2.9161,2.68 Z" fill="#e1e1e1" stroke-linecap="round"/></g></svg>
